<svg xmlns="http://www.w3.org/2000/svg" width="57.999" height="44.466" viewBox="0 0 57.999 44.466">
  <path id="Path_3587" data-name="Path 3587" d="M61.123,41.5a11.609,11.609,0,0,1-11.6,11.6H39.857V49.232h9.666a7.747,7.747,0,0,0,5.469-13.219,8.4,8.4,0,0,0-2.431-1.643l-1.24-.556.1-1.351c.017-.21.034-.413.034-.631a7.734,7.734,0,0,0-12.743-5.892L36.375,27.93l-.785-2.968a11.6,11.6,0,0,0-22.8,3,11.224,11.224,0,0,0,.626,3.746l.648,1.839-1.844.633h0a7.73,7.73,0,0,0,2.506,15.048H24.39V53.1H14.724A11.6,11.6,0,0,1,9.275,31.257,15.47,15.47,0,0,1,38.445,21.5a11.6,11.6,0,0,1,16.873,9.942,12.181,12.181,0,0,1,2.4,1.827,11.619,11.619,0,0,1,3.4,8.226Zm-19.944-.445-9.055-8.47-9.055,8.47,2.644,2.825,4.478-4.193V56.965h3.867V39.687l4.478,4.19Z" transform="translate(-3.124 -12.499)"/>
</svg>
