<svg xmlns="http://www.w3.org/2000/svg" width="27.818" height="30.726" viewBox="0 0 27.818 30.726">
  <g id="Group_205" data-name="Group 205" transform="translate(-327.864 -42.3)">
    <path id="Path_3434" data-name="Path 3434" d="M-5.276-298.889c-.365-.1-.742-.167-1.093-.3A4.875,4.875,0,0,1-9.5-302.641c-.016-.06-.036-.118-.066-.211h-.322c-1.909,0-3.819.009-5.728,0A2.3,2.3,0,0,1-17.9-305.3a2.282,2.282,0,0,1,.824-1.64,8.8,8.8,0,0,0,3.132-6.835c.01-1.166,0-2.333,0-3.5a9.238,9.238,0,0,1,8.009-9.274,10.248,10.248,0,0,1,1.636-.074,1.011,1.011,0,0,1,1.065.81.988.988,0,0,1-1.086,1.17,6.825,6.825,0,0,0-3.7.8,7.12,7.12,0,0,0-3.933,6.388c-.038,1.217,0,2.436-.009,3.654a10.8,10.8,0,0,1-3.729,8.285c-.14.126-.3.242-.2.466s.277.212.47.212q10.729,0,21.459-.01a.643.643,0,0,0,.458-.209c.142-.19-.047-.333-.188-.458a10.707,10.707,0,0,1-3.679-7.235,23.875,23.875,0,0,1-.036-2.475.932.932,0,0,1,.863-.9.958.958,0,0,1,1.064.741,2.879,2.879,0,0,1,.042.615,12.382,12.382,0,0,0,.264,3.228,8.856,8.856,0,0,0,2.82,4.558,2.313,2.313,0,0,1,.737,2.591,2.307,2.307,0,0,1-2.219,1.53q-2.849.007-5.7,0c-.217,0-.306.049-.376.28a4.876,4.876,0,0,1-4.071,3.634,1.425,1.425,0,0,0-.173.055Zm-2.184-3.949a2.912,2.912,0,0,0,2.828,1.965,2.884,2.884,0,0,0,2.688-1.965Z" transform="translate(345.772 371.915)"/>
    <circle id="Ellipse_27" data-name="Ellipse 27" cx="6.239" cy="6.239" r="6.239" transform="translate(343.205 42.3)" fill="#e86807"/>
  </g>
</svg>
